<?xml version="1.0" encoding="UTF-8"?>
<svg xmlns="http://www.w3.org/2000/svg" xmlns:xlink="http://www.w3.org/1999/xlink" width="0" height="0">
<symbol id="email" width="23" height="17" viewBox="0 0 23 17" fill="none">
<path d="M22 1H1M22 1V16M22 1L15.3182 8.24138M1 1V16M1 1L7.68182 8.24138M1 16H22M1 16L7.68182 8.24138M22 16L15.3182 8.24138M7.68182 8.24138L10.7651 11.5828C11.1611 12.012 11.8389 12.012 12.2349 11.5828L15.3182 8.24138" stroke="white"/>
</symbol>

<symbol id="map_point" width="32" height="38" viewBox="0 0 32 38" fill="none">
<path fill-rule="evenodd" clip-rule="evenodd" d="M6.09399 6.02708C8.71815 3.45064 12.2811 2 16 2C19.7189 2 23.2819 3.45064 25.906 6.02708C28.5295 8.60292 30 12.0926 30 15.7273C30 21.0457 26.4921 26.118 22.7804 29.9647C20.9461 31.8657 19.1083 33.4198 17.7278 34.4991C17.0384 35.0381 16.4651 35.4571 16.0661 35.74L16 35.7868L15.9339 35.74C15.5349 35.4571 14.9616 35.0381 14.2722 34.4991C12.8917 33.4198 11.0539 31.8657 9.21962 29.9647C5.50788 26.118 2 21.0457 2 15.7273C2 12.0926 3.47045 8.60292 6.09399 6.02708ZM15.4517 37.8363C15.4521 37.8365 15.4523 37.8367 16 37L15.4523 37.8367C15.785 38.0544 16.215 38.0544 16.5477 37.8367L16 37C16.5477 37.8367 16.5479 37.8365 16.5483 37.8363L16.5492 37.8357L16.5521 37.8338L16.5621 37.8272L16.5978 37.8035C16.6287 37.7829 16.6733 37.753 16.7308 37.7139C16.8457 37.6357 17.0123 37.5209 17.223 37.3715C17.6443 37.0727 18.2428 36.6352 18.9597 36.0747C20.3917 34.9552 22.3039 33.3389 24.2196 31.3535C28.0079 27.4274 32 21.8634 32 15.7273C32 11.5502 30.3097 7.54792 27.3072 4.59995C24.3053 1.6526 20.2376 0 16 0C11.7624 0 7.69474 1.6526 4.69281 4.59995C1.69025 7.54792 0 11.5502 0 15.7273C0 21.8634 3.99212 27.4274 7.78038 31.3535C9.69611 33.3389 11.6083 34.9552 13.0403 36.0747C13.7572 36.6352 14.3557 37.0727 14.777 37.3715C14.9877 37.5209 15.1543 37.6357 15.2692 37.7139C15.3267 37.753 15.3713 37.7829 15.4022 37.8035L15.4379 37.8272L15.4479 37.8338L15.4508 37.8357L15.4517 37.8363ZM9 16C9 12.134 12.134 9 16 9C19.866 9 23 12.134 23 16C23 19.866 19.866 23 16 23C12.134 23 9 19.866 9 16ZM16 7C11.0294 7 7 11.0294 7 16C7 20.9706 11.0294 25 16 25C20.9706 25 25 20.9706 25 16C25 11.0294 20.9706 7 16 7Z" fill="white"/>
</symbol>

<symbol id="phone" width="23" height="21" viewBox="0 0 23 21" fill="none">
<path d="M8.22041 8.55414L13.9482 13.7931C14.2766 14.0934 14.7635 14.1408 15.1434 13.9092L17.6184 12.4C18.806 11.6759 20.7165 14.6316 21.6428 16.4187C21.7296 16.5861 21.8954 16.7074 21.9731 16.8792C22.3367 17.6839 18.9306 19.1521 16.8293 19.911C16.6656 19.9702 16.4888 19.9842 16.3183 19.9493C8.53803 18.3577 3.23035 9.73582 1.26611 4.99653C1.10027 4.5964 1.22893 4.14178 1.5671 3.87114L4.43993 1.57197C4.84444 1.24823 5.42922 1.28706 5.78737 1.66144L8.38205 4.37369C8.63367 4.63672 8.7225 5.01569 8.61397 5.36313L7.94081 7.51808C7.82512 7.88843 7.93411 8.29227 8.22041 8.55414Z" stroke="white" stroke-width="2"/>
</symbol>

<symbol id="telegram" width="23" height="21" viewBox="0 0 23 21" fill="none">
<path d="M6.5 13L6.86597 12.2681C6.9534 12.0932 7.09017 11.9478 7.25936 11.8498L11.3331 9.49134C12.3098 8.92588 13.329 10.1588 12.5899 11.0117L10.1419 13.8363C10.0484 13.9442 9.97906 14.0708 9.93859 14.2078L8.43587 19.2916M6.5 13L8.43587 19.2916M6.5 13L1.87048 10.6852C1.63327 10.5666 1.45288 10.3586 1.36901 10.107L1.29817 9.89452C1.13074 9.39221 1.38386 8.84646 1.87547 8.64981L20.3878 1.24489C20.7592 1.09633 21.1834 1.1834 21.4663 1.46626L21.6216 1.62157C21.858 1.85799 21.9606 2.19693 21.895 2.52479L18.5959 19.0204C18.5354 19.323 18.3386 19.5807 18.0626 19.7187L18.0064 19.7468C17.6922 19.9039 17.3187 19.8846 17.0223 19.696L12.6251 16.8978C12.2538 16.6615 11.7716 16.6958 11.4374 16.9822L8.66556 19.3581C8.58738 19.4251 8.46615 19.39 8.43587 19.2916V19.2916" stroke="white" stroke-width="2"/>
</symbol>

<symbol id="viber" width="23" height="24" viewBox="0 0 23 24" fill="none">
<path fill-rule="evenodd" clip-rule="evenodd" d="M5.13087 0.751397C7.34011 0.556517 12.6158 0.295219 16.8052 0.760711C19.0407 1.0091 20.4796 2.003 21.3513 3.17609C22.2105 4.33224 22.5 5.63589 22.5 6.50765V6.51908V6.53056V6.5421V6.55371V6.56537V6.57709V6.58888V6.60072V6.61262V6.62458V6.6366V6.64867V6.66081V6.673V6.68525V6.69756V6.70992V6.72234V6.73482V6.74736V6.75995V6.7726V6.7853V6.79807V6.81088V6.82375V6.83668V6.84966V6.8627V6.87579V6.88894V6.90214V6.9154V6.92871V6.94207V6.95549V6.96896V6.98248V6.99606V7.00969V7.02337V7.03711V7.05089V7.06473V7.07862V7.09256V7.10656V7.1206V7.1347V7.14884V7.16304V7.17729V7.19159V7.20593V7.22033V7.23478V7.24928V7.26382V7.27842V7.29306V7.30775V7.32249V7.33728V7.35212V7.367V7.38194V7.39692V7.41194V7.42702V7.44214V7.45731V7.47252V7.48778V7.50309V7.51844V7.53384V7.54928V7.56477V7.58031V7.59588V7.61151V7.62718V7.64289V7.65864V7.67444V7.69029V7.70618V7.72211V7.73808V7.7541V7.77016V7.78626V7.8024V7.81859V7.83482V7.85109V7.8674V7.88375V7.90014V7.91658V7.93305V7.94957V7.96612V7.98272V7.99936V8.01603V8.03275V8.0495V8.0663V8.08313V8.1V8.11691V8.13386V8.15085V8.16787V8.18493V8.20203V8.21917V8.23634V8.25355V8.2708V8.28809V8.30541V8.32276V8.34016V8.35758V8.37505V8.39255V8.41008V8.42765V8.44526V8.4629V8.48057V8.49828V8.51602V8.53379V8.5516V8.56944V8.58732V8.60523V8.62317V8.64114V8.65915V8.67719V8.69526V8.71336V8.73149V8.74966V8.76785V8.78608V8.80434V8.82263V8.84095V8.8593V8.87768V8.89608V8.91452V8.93299V8.95149V8.97001V8.98857V9.00715V9.02576V9.0444V9.06307V9.08177V9.10049V9.11924V9.13802V9.15683V9.17566V9.19452V9.21341V9.23232V9.25126V9.27022V9.28921V9.30822V9.32726V9.34633V9.36542V9.38453V9.40367V9.42283V9.44202V9.46123V9.48047V9.49972V9.51901V9.53831V9.55764V9.57699V9.59636V9.61576V9.63517V9.65461V9.67407V9.69355V9.71306V9.73258V9.75213V9.77169V9.79128V9.81089V9.83051V9.85016V9.86983V9.88951V9.90922V9.92894V9.94868V9.96845V9.98823V10.008V10.0278V10.0477V10.0675V10.0874V10.1073V10.1272V10.1471V10.1671V10.187V10.207V10.227V10.247V10.267V10.287V10.3071V10.3271V10.3472V10.3673V10.3874V10.4075V10.4277V10.4478V10.468V10.4882V10.5084V10.5286V10.5488V10.569V10.5893V10.6095V10.6298V10.6501V10.6704V10.6907V10.711V10.7313V10.7516V10.772V10.7923V10.8127V10.8331V10.8535V10.8739V10.8943V10.9147V10.9351V10.9556V10.976V10.9965V11.0169V11.0374V11.0579V11.0784V11.0989V11.1194V11.1399V11.1604V11.1809V11.2014V11.222V11.2425V11.2631V11.2836V11.3042V11.3247V11.3453V11.3659V11.3865V11.407V11.4276V11.4482V11.4688V11.4894V11.51V11.5306V11.5512V11.5719V11.5925V11.6131V11.6337V11.6543V11.675V11.6956V11.7162V11.7368V11.7575V11.7781V11.7987V11.8194V11.84V11.8607V11.8813V11.9019V11.9226V11.9432V11.9638V11.9845V12.0051V12.0257V12.0464V12.067V12.0876V12.1082V12.1289V12.1495V12.1701V12.1907V12.2113V12.2319V12.2525V12.2731V12.2937V12.3143V12.3349V12.3555V12.3761V12.3966V12.4172V12.4378V12.4583V12.4789V12.4994V12.52V12.5405V12.561V12.5815V12.602V12.6226V12.6431V12.6635V12.684V12.7045V12.725V12.7454V12.7659V12.7863V12.8068V12.8272V12.8476V12.868V12.8884V12.9088V12.9292V12.9495V12.9699V12.9902V13.0106V13.0309V13.0512V13.0715V13.0918V13.1121V13.1323V13.1526V13.1728V13.1931V13.2133V13.2335V13.2537V13.2739V13.294V13.3142V13.3343V13.3544V13.3745V13.3946V13.4147V13.4348V13.4548V13.4748V13.4949V13.5149V13.5348V13.5548V13.5748V13.5947V13.6146V13.6345V13.6544V13.6743V13.6941V13.7139V13.7338V13.7536V13.7733V13.7931V13.8128V13.8325V13.8523V13.8719V13.8916V13.9112V13.9309V13.9505V13.97V13.9896V14.0091V14.0287V14.0482V14.0676V14.0871V14.1065V14.1259V14.1453V14.1647V14.1841V14.2034V14.2227V14.242V14.2612V14.2804V14.2996V14.3188V14.338V14.3571V14.3762V14.3953V14.4144V14.4334V14.4524V14.4714V14.4904V14.5093V14.5282V14.5471V14.5659V14.5848V14.6036V14.6223V14.6411V14.6598V14.6785V14.6972V14.7158V14.7344V14.753V14.7715V14.79V14.8085V14.827V14.8454V14.8638V14.8822V14.9006V14.9189V14.9371V14.9554V14.9736V14.9918V15.01V15.0281V15.0462V15.0643V15.0823V15.1003V15.1183V15.1362V15.1541V15.172V15.1898V15.2076V15.2254V15.2431V15.2608V15.2785V15.2961V15.3137V15.3313V15.3488V15.3663V15.3837V15.4012V15.4185V15.4359V15.4532V15.4705V15.4877V15.5049V15.5221V15.5392V15.5563V15.5734V15.5904V15.6074V15.6243V15.6412V15.6581V15.6749V15.6917V15.7084V15.7252V15.7418V15.7584V15.775V15.7916V15.8081V15.8246V15.841C22.5 17.4418 21.515 18.6281 20.3877 19.4386C19.2578 20.2509 17.9069 20.7473 16.9714 20.9698C16.8584 20.9966 16.7477 21.0077 16.6402 21.0077H10.1199C10.0006 21.0077 9.88515 21.0504 9.79453 21.128L7.64285 22.9723C6.66984 23.8063 5.16667 23.115 5.16667 21.8334V20.5815C5.16667 20.3911 5.04903 20.1889 4.83214 20.0658C2.59585 18.7972 1.14996 16.3323 0.608165 15.0394C0.532156 14.8581 0.5 14.6705 0.5 14.4883V14.4775V14.4666V14.4557V14.4447V14.4336V14.4225V14.4114V14.4002V14.389V14.3777V14.3664V14.355V14.3435V14.3321V14.3205V14.309V14.2974V14.2857V14.274V14.2622V14.2504V14.2386V14.2267V14.2147V14.2027V14.1907V14.1786V14.1665V14.1543V14.1421V14.1299V14.1176V14.1052V14.0928V14.0804V14.0679V14.0554V14.0428V14.0302V14.0175V14.0048V13.9921V13.9793V13.9665V13.9536V13.9407V13.9277V13.9147V13.9017V13.8886V13.8755V13.8623V13.8491V13.8358V13.8226V13.8092V13.7958V13.7824V13.769V13.7555V13.7419V13.7284V13.7148V13.7011V13.6874V13.6737V13.6599V13.6461V13.6322V13.6183V13.6044V13.5905V13.5764V13.5624V13.5483V13.5342V13.52V13.5058V13.4916V13.4773V13.463V13.4487V13.4343V13.4199V13.4054V13.3909V13.3764V13.3619V13.3473V13.3326V13.318V13.3032V13.2885V13.2737V13.2589V13.2441V13.2292V13.2143V13.1993V13.1843V13.1693V13.1543V13.1392V13.1241V13.1089V13.0937V13.0785V13.0633V13.048V13.0327V13.0173V13.0019V12.9865V12.9711V12.9556V12.9401V12.9245V12.909V12.8934V12.8777V12.8621V12.8464V12.8306V12.8149V12.7991V12.7833V12.7674V12.7515V12.7356V12.7197V12.7037V12.6877V12.6717V12.6557V12.6396V12.6235V12.6073V12.5912V12.575V12.5587V12.5425V12.5262V12.5099V12.4936V12.4772V12.4608V12.4444V12.428V12.4115V12.395V12.3785V12.3619V12.3454V12.3288V12.3121V12.2955V12.2788V12.2621V12.2454V12.2286V12.2118V12.195V12.1782V12.1614V12.1445V12.1276V12.1107V12.0937V12.0768V12.0598V12.0428V12.0257V12.0087V11.9916V11.9745V11.9573V11.9402V11.923V11.9058V11.8886V11.8714V11.8541V11.8368V11.8195V11.8022V11.7849V11.7675V11.7501V11.7327V11.7153V11.6978V11.6804V11.6629V11.6454V11.6279V11.6103V11.5928V11.5752V11.5576V11.54V11.5223V11.5047V11.487V11.4693V11.4516V11.4339V11.4161V11.3983V11.3806V11.3628V11.345V11.3271V11.3093V11.2914V11.2735V11.2556V11.2377V11.2198V11.2018V11.1839V11.1659V11.1479V11.1299V11.1119V11.0939V11.0758V11.0577V11.0397V11.0216V11.0035V10.9853V10.9672V10.9491V10.9309V10.9127V10.8945V10.8763V10.8581V10.8399V10.8217V10.8034V10.7851V10.7669V10.7486V10.7303V10.712V10.6936V10.6753V10.657V10.6386V10.6203V10.6019V10.5835V10.5651V10.5467V10.5283V10.5098V10.4914V10.473V10.4545V10.436V10.4176V10.3991V10.3806V10.3621V10.3436V10.3251V10.3065V10.288V10.2695V10.2509V10.2324V10.2138V10.1952V10.1767V10.1581V10.1395V10.1209V10.1023V10.0837V10.0651V10.0464V10.0278V10.0092V9.99053V9.97188V9.95323V9.93458V9.91592V9.89726V9.87859V9.85992V9.84124V9.82256V9.80387V9.78518V9.76649V9.74779V9.72909V9.71039V9.69169V9.67298V9.65427V9.63555V9.61684V9.59812V9.5794V9.56068V9.54195V9.52323V9.5045V9.48577V9.46704V9.44831V9.42958V9.41085V9.39212V9.37339V9.35465V9.33592V9.31719V9.29845V9.27972V9.26099V9.24226V9.22353V9.2048V9.18607V9.16735V9.14862V9.1299V9.11118V9.09246V9.07374V9.05503V9.03631V9.0176V8.9989V8.98019V8.96149V8.94279V8.9241V8.90541V8.88672V8.86804V8.84936V8.83068V8.81201V8.79334V8.77468V8.75602V8.73737V8.71872V8.70008V8.68145V8.66281V8.64419V8.62557V8.60695V8.58835V8.56975V8.55115V8.53256V8.51398V8.49541V8.47684V8.45828V8.43973V8.42118V8.40265V8.38412V8.3656V8.34708V8.32858V8.31008V8.29159V8.27311V8.25464V8.23618V8.21773V8.19929V8.18086V8.16243V8.14402V8.12562V8.10723V8.08884V8.07047V8.05211V8.03376V8.01542V7.99709V7.97877V7.96047V7.94217V7.92389V7.90562V7.88736V7.86912V7.85088V7.83266V7.81445V7.79626V7.77808V7.75991V7.74175V7.72361V7.70548V7.68736V7.66926V7.65117V7.6331V7.61504V7.597V7.57897V7.56095V7.54295V7.52497V7.507V7.48905V7.47111V7.45319V7.43528V7.41739V7.39952V7.38166V7.36382V7.34599V7.32819V7.3104V7.29262V7.27487V7.25713V7.23941V7.22171V7.20402V7.18635V7.16871V7.15108V7.13346V7.11587V7.0983V7.08074V7.06321V7.04569V7.02819V7.01072V6.99326V6.97582V6.9584V6.94101V6.92363V6.90627V6.88894V6.87163V6.85433V6.83706V6.81981V6.80258V6.78537V6.76819V6.75102V6.73388V6.71676V6.69967V6.68259V6.66554V6.64851V6.63151V6.61453V6.59757V6.58063V6.56372V6.54683V6.52997V6.51313V6.49632V6.47953V6.46276V6.44602V6.4293V6.41261V6.39595V6.37931V6.36269V6.3461V6.32954V6.313V6.29649V6.28001V6.26355V6.24712V6.23071V6.21433V6.19798V6.18166V6.16536V6.1491V6.13286V6.11664V6.10046V6.0843V6.06817V6.05207V6.036V6.01996V6.00395V5.98796V5.97201V5.95608V5.94019V5.92432C0.5 4.37865 1.23997 3.20069 2.13707 2.36975C3.02744 1.54507 4.09623 1.03698 4.84718 0.806196C4.94386 0.776484 5.03725 0.759655 5.13087 0.751397ZM16.6948 1.7546C12.6015 1.29979 7.40154 1.55498 5.21874 1.74753C5.18766 1.75027 5.16392 1.75501 5.14094 1.76208C4.50472 1.9576 3.57648 2.39958 2.8166 3.1034C2.06347 3.80098 1.5 4.72995 1.5 5.92432V5.94019V5.95608V5.97201V5.98796V6.00395V6.01996V6.036V6.05207V6.06817V6.0843V6.10046V6.11664V6.13286V6.1491V6.16536V6.18166V6.19798V6.21433V6.23071V6.24712V6.26355V6.28001V6.29649V6.313V6.32954V6.3461V6.36269V6.37931V6.39595V6.41261V6.4293V6.44602V6.46276V6.47953V6.49632V6.51313V6.52997V6.54683V6.56372V6.58063V6.59757V6.61453V6.63151V6.64851V6.66554V6.68259V6.69967V6.71676V6.73388V6.75102V6.76819V6.78537V6.80258V6.81981V6.83706V6.85433V6.87163V6.88894V6.90627V6.92363V6.94101V6.9584V6.97582V6.99326V7.01072V7.02819V7.04569V7.06321V7.08074V7.0983V7.11587V7.13346V7.15108V7.16871V7.18635V7.20402V7.22171V7.23941V7.25713V7.27487V7.29262V7.3104V7.32819V7.34599V7.36382V7.38166V7.39952V7.41739V7.43528V7.45319V7.47111V7.48905V7.507V7.52497V7.54295V7.56095V7.57897V7.597V7.61504V7.6331V7.65117V7.66926V7.68736V7.70548V7.72361V7.74175V7.75991V7.77808V7.79626V7.81445V7.83266V7.85088V7.86912V7.88736V7.90562V7.92389V7.94217V7.96047V7.97877V7.99709V8.01542V8.03376V8.05211V8.07047V8.08884V8.10723V8.12562V8.14402V8.16243V8.18086V8.19929V8.21773V8.23618V8.25464V8.27311V8.29159V8.31008V8.32858V8.34708V8.3656V8.38412V8.40265V8.42118V8.43973V8.45828V8.47684V8.49541V8.51398V8.53256V8.55115V8.56975V8.58835V8.60695V8.62557V8.64419V8.66281V8.68145V8.70008V8.71872V8.73737V8.75602V8.77468V8.79334V8.81201V8.83068V8.84936V8.86804V8.88672V8.90541V8.9241V8.94279V8.96149V8.98019V8.9989V9.0176V9.03631V9.05503V9.07374V9.09246V9.11118V9.1299V9.14862V9.16735V9.18607V9.2048V9.22353V9.24226V9.26099V9.27972V9.29845V9.31719V9.33592V9.35465V9.37339V9.39212V9.41085V9.42958V9.44831V9.46704V9.48577V9.5045V9.52323V9.54195V9.56068V9.5794V9.59812V9.61684V9.63555V9.65427V9.67298V9.69169V9.71039V9.72909V9.74779V9.76649V9.78518V9.80387V9.82256V9.84124V9.85992V9.87859V9.89726V9.91592V9.93458V9.95323V9.97188V9.99053V10.0092V10.0278V10.0464V10.0651V10.0837V10.1023V10.1209V10.1395V10.1581V10.1767V10.1952V10.2138V10.2324V10.2509V10.2695V10.288V10.3065V10.3251V10.3436V10.3621V10.3806V10.3991V10.4176V10.436V10.4545V10.473V10.4914V10.5098V10.5283V10.5467V10.5651V10.5835V10.6019V10.6203V10.6386V10.657V10.6753V10.6936V10.712V10.7303V10.7486V10.7669V10.7851V10.8034V10.8217V10.8399V10.8581V10.8763V10.8945V10.9127V10.9309V10.9491V10.9672V10.9853V11.0035V11.0216V11.0397V11.0577V11.0758V11.0939V11.1119V11.1299V11.1479V11.1659V11.1839V11.2018V11.2198V11.2377V11.2556V11.2735V11.2914V11.3093V11.3271V11.345V11.3628V11.3806V11.3983V11.4161V11.4339V11.4516V11.4693V11.487V11.5047V11.5223V11.54V11.5576V11.5752V11.5928V11.6103V11.6279V11.6454V11.6629V11.6804V11.6978V11.7153V11.7327V11.7501V11.7675V11.7849V11.8022V11.8195V11.8368V11.8541V11.8714V11.8886V11.9058V11.923V11.9402V11.9573V11.9745V11.9916V12.0087V12.0257V12.0428V12.0598V12.0768V12.0937V12.1107V12.1276V12.1445V12.1614V12.1782V12.195V12.2118V12.2286V12.2454V12.2621V12.2788V12.2955V12.3121V12.3288V12.3454V12.3619V12.3785V12.395V12.4115V12.428V12.4444V12.4608V12.4772V12.4936V12.5099V12.5262V12.5425V12.5587V12.575V12.5912V12.6073V12.6235V12.6396V12.6557V12.6717V12.6877V12.7037V12.7197V12.7356V12.7515V12.7674V12.7833V12.7991V12.8149V12.8306V12.8464V12.8621V12.8777V12.8934V12.909V12.9245V12.9401V12.9556V12.9711V12.9865V13.0019V13.0173V13.0327V13.048V13.0633V13.0785V13.0937V13.1089V13.1241V13.1392V13.1543V13.1693V13.1843V13.1993V13.2143V13.2292V13.2441V13.2589V13.2737V13.2885V13.3032V13.318V13.3326V13.3473V13.3619V13.3764V13.3909V13.4054V13.4199V13.4343V13.4487V13.463V13.4773V13.4916V13.5058V13.52V13.5342V13.5483V13.5624V13.5764V13.5905V13.6044V13.6183V13.6322V13.6461V13.6599V13.6737V13.6874V13.7011V13.7148V13.7284V13.7419V13.7555V13.769V13.7824V13.7958V13.8092V13.8226V13.8358V13.8491V13.8623V13.8755V13.8886V13.9017V13.9147V13.9277V13.9407V13.9536V13.9665V13.9793V13.9921V14.0048V14.0175V14.0302V14.0428V14.0554V14.0679V14.0804V14.0928V14.1052V14.1176V14.1299V14.1421V14.1543V14.1665V14.1786V14.1907V14.2027V14.2147V14.2267V14.2386V14.2504V14.2622V14.274V14.2857V14.2974V14.309V14.3205V14.3321V14.3435V14.355V14.3664V14.3777V14.389V14.4002V14.4114V14.4225V14.4336V14.4447V14.4557V14.4666V14.4775V14.4883C1.5 14.5527 1.51118 14.607 1.53045 14.6529C2.03392 15.8543 3.36623 18.0845 5.32556 19.196C5.80262 19.4667 6.16667 19.9741 6.16667 20.5815V21.8334C6.16667 22.2606 6.66772 22.4911 6.99206 22.2131L9.14374 20.3688C9.4156 20.1357 9.76186 20.0077 10.1199 20.0077H16.6402C16.6787 20.0077 16.7111 20.0038 16.7401 19.9969C17.5857 19.7958 18.807 19.3434 19.8039 18.6266C20.8034 17.908 21.5 16.9848 21.5 15.841V15.8246V15.8081V15.7916V15.775V15.7584V15.7418V15.7252V15.7084V15.6917V15.6749V15.6581V15.6412V15.6243V15.6074V15.5904V15.5734V15.5563V15.5392V15.5221V15.5049V15.4877V15.4705V15.4532V15.4359V15.4185V15.4012V15.3837V15.3663V15.3488V15.3313V15.3137V15.2961V15.2785V15.2608V15.2431V15.2254V15.2076V15.1898V15.172V15.1541V15.1362V15.1183V15.1003V15.0823V15.0643V15.0462V15.0281V15.01V14.9918V14.9736V14.9554V14.9371V14.9189V14.9006V14.8822V14.8638V14.8454V14.827V14.8085V14.79V14.7715V14.753V14.7344V14.7158V14.6972V14.6785V14.6598V14.6411V14.6223V14.6036V14.5848V14.5659V14.5471V14.5282V14.5093V14.4904V14.4714V14.4524V14.4334V14.4144V14.3953V14.3762V14.3571V14.338V14.3188V14.2996V14.2804V14.2612V14.242V14.2227V14.2034V14.1841V14.1647V14.1453V14.1259V14.1065V14.0871V14.0676V14.0482V14.0287V14.0091V13.9896V13.97V13.9505V13.9309V13.9112V13.8916V13.8719V13.8523V13.8325V13.8128V13.7931V13.7733V13.7536V13.7338V13.7139V13.6941V13.6743V13.6544V13.6345V13.6146V13.5947V13.5748V13.5548V13.5348V13.5149V13.4949V13.4748V13.4548V13.4348V13.4147V13.3946V13.3745V13.3544V13.3343V13.3142V13.294V13.2739V13.2537V13.2335V13.2133V13.1931V13.1728V13.1526V13.1323V13.1121V13.0918V13.0715V13.0512V13.0309V13.0106V12.9902V12.9699V12.9495V12.9292V12.9088V12.8884V12.868V12.8476V12.8272V12.8068V12.7863V12.7659V12.7454V12.725V12.7045V12.684V12.6635V12.6431V12.6226V12.602V12.5815V12.561V12.5405V12.52V12.4994V12.4789V12.4583V12.4378V12.4172V12.3966V12.3761V12.3555V12.3349V12.3143V12.2937V12.2731V12.2525V12.2319V12.2113V12.1907V12.1701V12.1495V12.1289V12.1082V12.0876V12.067V12.0464V12.0257V12.0051V11.9845V11.9638V11.9432V11.9226V11.9019V11.8813V11.8607V11.84V11.8194V11.7987V11.7781V11.7575V11.7368V11.7162V11.6956V11.675V11.6543V11.6337V11.6131V11.5925V11.5719V11.5512V11.5306V11.51V11.4894V11.4688V11.4482V11.4276V11.407V11.3865V11.3659V11.3453V11.3247V11.3042V11.2836V11.2631V11.2425V11.222V11.2014V11.1809V11.1604V11.1399V11.1194V11.0989V11.0784V11.0579V11.0374V11.0169V10.9965V10.976V10.9556V10.9351V10.9147V10.8943V10.8739V10.8535V10.8331V10.8127V10.7923V10.772V10.7516V10.7313V10.711V10.6907V10.6704V10.6501V10.6298V10.6095V10.5893V10.569V10.5488V10.5286V10.5084V10.4882V10.468V10.4478V10.4277V10.4075V10.3874V10.3673V10.3472V10.3271V10.3071V10.287V10.267V10.247V10.227V10.207V10.187V10.1671V10.1471V10.1272V10.1073V10.0874V10.0675V10.0477V10.0278V10.008V9.98823V9.96845V9.94868V9.92894V9.90922V9.88951V9.86983V9.85016V9.83051V9.81089V9.79128V9.77169V9.75213V9.73258V9.71306V9.69355V9.67407V9.65461V9.63517V9.61576V9.59636V9.57699V9.55764V9.53831V9.51901V9.49972V9.48047V9.46123V9.44202V9.42283V9.40367V9.38453V9.36542V9.34633V9.32726V9.30822V9.28921V9.27022V9.25126V9.23232V9.21341V9.19452V9.17566V9.15683V9.13802V9.11924V9.10049V9.08177V9.06307V9.0444V9.02576V9.00715V8.98857V8.97001V8.95149V8.93299V8.91452V8.89608V8.87768V8.8593V8.84095V8.82263V8.80434V8.78608V8.76785V8.74966V8.73149V8.71336V8.69526V8.67719V8.65915V8.64114V8.62317V8.60523V8.58732V8.56944V8.5516V8.53379V8.51602V8.49828V8.48057V8.4629V8.44526V8.42765V8.41008V8.39255V8.37505V8.35758V8.34016V8.32276V8.30541V8.28809V8.2708V8.25355V8.23634V8.21917V8.20203V8.18493V8.16787V8.15085V8.13386V8.11691V8.1V8.08313V8.0663V8.0495V8.03275V8.01603V7.99936V7.98272V7.96612V7.94957V7.93305V7.91658V7.90014V7.88375V7.8674V7.85109V7.83482V7.81859V7.8024V7.78626V7.77016V7.7541V7.73808V7.72211V7.70618V7.69029V7.67444V7.65864V7.64289V7.62718V7.61151V7.59588V7.58031V7.56477V7.54928V7.53384V7.51844V7.50309V7.48778V7.47252V7.45731V7.44214V7.42702V7.41194V7.39692V7.38194V7.367V7.35212V7.33728V7.32249V7.30775V7.29306V7.27842V7.26382V7.24928V7.23478V7.22033V7.20593V7.19159V7.17729V7.16304V7.14884V7.1347V7.1206V7.10656V7.09256V7.07862V7.06473V7.05089V7.03711V7.02337V7.00969V6.99606V6.98248V6.96896V6.95549V6.94207V6.92871V6.9154V6.90214V6.88894V6.87579V6.8627V6.84966V6.83668V6.82375V6.81088V6.79807V6.7853V6.7726V6.75995V6.74736V6.73482V6.72234V6.70992V6.69756V6.68525V6.673V6.66081V6.64867V6.6366V6.62458V6.61262V6.60072V6.58888V6.57709V6.56537V6.55371V6.5421V6.53056V6.51908V6.50765C21.5 5.82386 21.2645 4.73584 20.5487 3.77255C19.8454 2.82619 18.6593 1.97287 16.6948 1.7546ZM5.88998 7.2952C6.51521 6.74214 7.47167 6.8059 8.01797 7.43706L8.7347 8.26513C9.06504 8.6468 9.18128 9.16901 9.04399 9.65476L8.85454 10.3251C8.80555 10.4984 8.85356 10.6847 8.98022 10.8127L11.2025 13.0593C11.3716 13.2302 11.6381 13.2566 11.8373 13.1224L12.6341 12.5854C12.9909 12.3449 13.367 12.4446 13.6201 12.5926C13.8633 12.7349 14.0814 12.9635 14.2642 13.1926C14.6371 13.6601 14.985 14.2873 15.2211 14.7739C15.2211 14.7739 15.2212 14.7741 15.2214 14.7746L15.2232 14.7777C15.2247 14.7803 15.2268 14.784 15.2299 14.789C15.2365 14.7994 15.2451 14.8122 15.2575 14.83L15.2712 14.8493L15.2712 14.8494C15.2936 14.881 15.3281 14.9298 15.3563 14.975C15.4234 15.0826 15.5659 15.3378 15.4627 15.6504C15.3794 15.9028 15.1701 16.0966 15.0105 16.2246C14.8293 16.3698 14.6049 16.512 14.3711 16.6441C13.9014 16.9096 13.3405 17.1644 12.8808 17.3536C12.6117 17.4643 12.3062 17.4952 12.0084 17.4185C10.1145 16.9312 8.55277 15.5718 7.35535 14.0656C6.15305 12.5532 5.27714 10.8419 4.76625 9.55761C4.53375 8.97313 4.71892 8.33107 5.16769 7.93411L5.88998 7.2952ZM7.26186 8.0915C7.07976 7.88112 6.76094 7.85986 6.55253 8.04422L5.83024 8.68313C5.67463 8.82077 5.62969 9.02272 5.69544 9.18799C6.17901 10.4036 7.01004 12.0243 8.13813 13.4433C9.27111 14.8685 10.6632 16.0398 12.2576 16.4501C12.3306 16.4689 12.4154 16.4638 12.5003 16.4288C12.9394 16.2482 13.4589 16.011 13.8791 15.7735C14.0902 15.6542 14.263 15.5421 14.385 15.4444C14.4048 15.4285 14.4219 15.414 14.4366 15.4011C14.4061 15.3573 14.3597 15.2894 14.3214 15.2104C14.0984 14.7508 13.7882 14.1995 13.4824 13.8162C13.3311 13.6265 13.2081 13.513 13.124 13.4611L12.3962 13.9516C11.7983 14.3546 10.9985 14.275 10.4916 13.7625L8.26928 11.516C7.88931 11.1318 7.74529 10.5731 7.89223 10.0531L8.08169 9.38279C8.12745 9.22087 8.08871 9.0468 7.97859 8.91958L7.26186 8.0915ZM12.0822 5.56649C13.0051 5.41267 14.3405 5.49089 15.3768 6.16704C16.3685 6.81414 17.1905 8.07783 17.0015 10.5349L17.9985 10.6116C18.2095 7.86876 17.2815 6.21579 15.9232 5.32955C14.6095 4.47237 12.9949 4.40059 11.9178 4.5801L12.0822 5.56649ZM14.6264 7.47913C14.001 7.07024 13.1587 6.9947 12.562 7.06928L12.438 6.07701C13.1747 5.98492 14.2823 6.05939 15.1736 6.64216C15.6287 6.93973 16.0235 7.36835 16.2707 7.96007C16.5166 8.54846 16.6044 9.26872 16.4961 10.1352L15.5039 10.0111C15.5956 9.27757 15.5126 8.7395 15.348 8.34559C15.1848 7.95503 14.9296 7.67739 14.6264 7.47913ZM12.5981 8.56354C12.9567 8.49182 13.4098 8.51001 13.7029 8.68808C13.8345 8.76803 13.9393 8.88226 14.0018 9.05967C14.0673 9.24554 14.0977 9.535 14.0097 9.97519L14.9903 10.1713C15.1023 9.6115 15.0869 9.13014 14.945 8.72746C14.8002 8.31633 14.5363 8.02431 14.2221 7.83342C13.6236 7.46983 12.8766 7.48802 12.4019 7.58296L12.5981 8.56354Z" fill="white"/>
</symbol>

</svg>